<svg width="174" height="35" viewBox="0 0 174 35" fill="none" xmlns="http://www.w3.org/2000/svg">
<g clip-path="url(#clip0_2_3)">
<path d="M23.5 18L29 24.5L48.5 1.5H70.5L84.5 18L70.5 34.5H48.5L62 18L57 12L37.5 34.5H16L2 18L16 1.5H38.5L23.5 18Z" fill="#5DE3A0" stroke="#5DE3A0"/>
<path d="M96.95 35.5C96.2167 35.5 95.5833 35.3167 95.05 34.95C94.55 34.55 94.3 33.6333 94.3 32.2C94.3 31.4667 94.3667 30.5833 94.5 29.55C94.6667 28.4833 94.8333 27.3833 95 26.25C95.2667 24.65 95.5333 22.9 95.8 21C96.0667 19.0667 96.2 17.15 96.2 15.25C96.2 13.25 96.1333 11.7167 96 10.65C95.8667 9.58333 95.7167 8.71666 95.55 8.05C95.4833 7.68333 95.4167 7.35 95.35 7.05C95.3167 6.75 95.3 6.41667 95.3 6.05C95.3 4.98333 95.6333 4.18333 96.3 3.65C97 3.08333 97.7667 2.8 98.6 2.8C99.4333 2.8 100.133 3.01666 100.7 3.45C101.267 3.85 101.767 4.28333 102.2 4.75C105.067 7.98333 107.65 11.3833 109.95 14.95C112.25 18.4833 114.167 22.1167 115.7 25.85C115.867 26.1167 116.017 26.25 116.15 26.25C116.35 26.25 116.483 26.1167 116.55 25.85C117.15 21.95 117.45 18.4167 117.45 15.25C117.45 13.35 117.367 11.85 117.2 10.75C117.067 9.61666 116.883 8.75 116.65 8.15C116.45 7.51666 116.25 7.01666 116.05 6.65C115.95 6.41667 115.867 6.21667 115.8 6.05C115.733 5.85 115.7 5.66666 115.7 5.5C115.7 5.1 115.9 4.7 116.3 4.3C116.733 3.86667 117.25 3.51666 117.85 3.25C118.45 2.98333 119.033 2.85 119.6 2.85C120.4 2.85 120.983 3.11667 121.35 3.65C121.717 4.18333 121.95 4.85 122.05 5.65C122.183 6.41667 122.25 7.2 122.25 8C122.25 8.9 122.167 10.0667 122 11.5C121.833 12.9333 121.633 14.4833 121.4 16.15C121.2 17.7833 121.017 19.4 120.85 21C120.717 22.6 120.65 24.0167 120.65 25.25C120.65 25.95 120.667 26.6333 120.7 27.3C120.767 27.9667 120.833 28.6167 120.9 29.25C121 30.0833 121.05 30.8167 121.05 31.45C121.05 32.6833 120.733 33.6667 120.1 34.4C119.5 35.1 118.667 35.45 117.6 35.45C116.867 35.45 116.133 35.2333 115.4 34.8C114.7 34.3667 114.167 33.6667 113.8 32.7C112.367 29.0333 110.6 25.4667 108.5 22C106.433 18.5 104.267 15.4833 102 12.95C101.633 12.6167 101.333 12.45 101.1 12.45C100.767 12.45 100.55 12.8167 100.45 13.55C100.283 14.8167 100.117 16.2 99.95 17.7C99.7833 19.2 99.65 20.6667 99.55 22.1C99.45 23.5 99.4 24.7 99.4 25.7C99.4 26.8333 99.5 27.8167 99.7 28.65C99.9 29.45 100.2 30.2333 100.6 31C100.967 31.6667 101.15 32.2667 101.15 32.8C101.15 33.4333 100.783 34.05 100.05 34.65C99.3167 35.2167 98.2833 35.5 96.95 35.5ZM135.172 35.6C132.405 35.6 130.422 34.95 129.222 33.65C128.022 32.3167 127.422 30.5667 127.422 28.4C127.422 27.8333 127.472 27.15 127.572 26.35C127.672 25.55 127.805 24.5833 127.972 23.45C128.239 21.8167 128.439 20.3667 128.572 19.1C128.705 17.8 128.772 16.3833 128.772 14.85C128.772 13.0833 128.722 11.65 128.622 10.55C128.055 10.8833 127.639 11.05 127.372 11.05C126.839 11.05 126.572 10.45 126.572 9.25C126.572 8.31666 126.772 7.53333 127.172 6.9C127.605 6.23333 128.305 5.61667 129.272 5.05C130.239 4.45 131.455 3.93333 132.922 3.5C134.422 3.06667 136.022 2.85 137.722 2.85C140.489 2.85 142.589 3.48333 144.022 4.75C145.455 6.01667 146.172 7.68333 146.172 9.75C146.172 11.0833 145.889 12.3167 145.322 13.45C144.755 14.5833 143.955 15.5833 142.922 16.45C147.089 17.1167 149.172 19.5167 149.172 23.65C149.172 25.8833 148.539 27.9167 147.272 29.75C146.005 31.5833 144.289 33.0167 142.122 34.05C140.022 35.0833 137.705 35.6 135.172 35.6ZM137.172 30.05C138.672 30.05 140.022 29.85 141.222 29.45C142.455 29.0167 143.439 28.4 144.172 27.6C144.905 26.8 145.272 25.8667 145.272 24.8C145.272 23.4333 144.789 22.4667 143.822 21.9C142.855 21.3333 141.739 21.05 140.472 21.05C139.939 21.05 139.272 21.1 138.472 21.2C138.139 21.2667 137.755 21.3 137.322 21.3C136.589 21.3 135.972 21 135.472 20.4C135.005 19.8 134.772 19.05 134.772 18.15C134.772 17.5167 135.055 17.1167 135.622 16.95C139.689 15.8833 141.722 14.0333 141.722 11.4C141.722 9.3 140.272 8.25 137.372 8.25C136.305 8.25 134.989 8.43333 133.422 8.8C133.422 10.4333 133.339 12.15 133.172 13.95C133.005 15.7167 132.755 17.5667 132.422 19.5C132.222 20.8333 132.055 21.9667 131.922 22.9C131.822 23.8 131.772 24.5333 131.772 25.1C131.772 26.9 132.222 28.1833 133.122 28.95C134.022 29.6833 135.372 30.05 137.172 30.05ZM159.995 35.5C159.595 35.5 159.179 35.4333 158.745 35.3C158.345 35.1667 158.012 34.85 157.745 34.35C157.479 33.85 157.345 33.0833 157.345 32.05C157.345 31.3167 157.395 30.4167 157.495 29.35C157.629 28.2833 157.795 27.1333 157.995 25.9C158.262 24.2333 158.479 22.4833 158.645 20.65C158.845 18.7833 158.945 16.8833 158.945 14.95C158.945 13.3833 158.862 12.0333 158.695 10.9C158.562 9.73333 158.379 8.83333 158.145 8.2C156.879 8.23333 155.679 8.31667 154.545 8.45C153.412 8.58333 152.262 8.8 151.095 9.1C150.795 9.13333 150.529 9.18333 150.295 9.25C150.095 9.28333 149.895 9.3 149.695 9.3C149.395 9.3 149.179 9.25 149.045 9.15C148.912 9.01667 148.845 8.71667 148.845 8.25C148.845 7.68333 148.929 7.1 149.095 6.5C149.262 5.86666 149.512 5.33333 149.845 4.9C150.179 4.43333 150.562 4.1 150.995 3.9C151.462 3.66667 151.962 3.51667 152.495 3.45C153.329 3.35 154.395 3.26667 155.695 3.2C156.995 3.1 158.412 3.01666 159.945 2.95C161.512 2.88333 163.045 2.85 164.545 2.85C166.979 2.85 168.712 2.86667 169.745 2.9C170.812 2.93333 171.529 2.98333 171.895 3.05C172.362 3.11666 172.679 3.26666 172.845 3.5C173.045 3.7 173.145 4.03333 173.145 4.5C173.145 5.4 172.745 6.3 171.945 7.2C171.612 7.6 171.262 7.91667 170.895 8.15C170.529 8.35 170.045 8.43333 169.445 8.4C168.912 8.33333 168.129 8.28333 167.095 8.25C166.062 8.21667 164.912 8.2 163.645 8.2C163.612 9.36666 163.512 10.7333 163.345 12.3C163.212 13.8333 163.045 15.3833 162.845 16.95C162.645 18.4833 162.479 20.0167 162.345 21.55C162.212 23.0833 162.145 24.4833 162.145 25.75C162.145 26.9167 162.245 27.95 162.445 28.85C162.679 29.7167 163.129 30.4667 163.795 31.1C164.262 31.5667 164.495 32.0667 164.495 32.6C164.495 33.3333 164.079 34 163.245 34.6C162.412 35.2 161.329 35.5 159.995 35.5Z" fill="white"/>
</g>
<defs>
<clipPath id="clip0_2_3">
<rect width="174" height="35" fill="white"/>
</clipPath>
</defs>
</svg>
